<mxfile host="65bd71144e">
    <diagram id="O-l9ix1KP-EusnsWMyBt" name="Page-1">
        <mxGraphModel dx="953" dy="532" grid="0" gridSize="10" guides="0" tooltips="1" connect="1" arrows="1" fold="1" page="1" pageScale="1" pageWidth="827" pageHeight="1169" background="#FFFFFF" math="0" shadow="0">
            <root>
                <mxCell id="0"/>
                <mxCell id="1" parent="0"/>
                <mxCell id="8" value="START" style="rounded=1;whiteSpace=wrap;html=1;fontColor=#000000;labelBorderColor=none;fillColor=none;strokeColor=#000000;" vertex="1" parent="1">
                    <mxGeometry x="114" y="58" width="100" height="40" as="geometry"/>
                </mxCell>
                <mxCell id="38" style="edgeStyle=none;html=1;exitX=1;exitY=0.5;exitDx=0;exitDy=0;entryX=0.558;entryY=-0.017;entryDx=0;entryDy=0;entryPerimeter=0;fontFamily=Georgia;fontColor=#000000;strokeColor=#000000;labelBorderColor=none;strokeWidth=2;" edge="1" parent="1" source="12" target="37">
                    <mxGeometry relative="1" as="geometry">
                        <Array as="points">
                            <mxPoint x="240" y="260"/>
                            <mxPoint x="280" y="290"/>
                            <mxPoint x="320" y="330"/>
                        </Array>
                    </mxGeometry>
                </mxCell>
                <mxCell id="12" value="Capture The Image&lt;br&gt;(Live capturing)" style="rounded=0;whiteSpace=wrap;html=1;fontFamily=Georgia;fontColor=#000000;labelBorderColor=none;strokeColor=#000000;fillColor=none;" vertex="1" parent="1">
                    <mxGeometry x="40" y="230" width="130" height="50" as="geometry"/>
                </mxCell>
                <mxCell id="35" style="edgeStyle=none;html=1;exitX=0.5;exitY=0;exitDx=0;exitDy=0;entryX=0.75;entryY=1;entryDx=0;entryDy=0;fontFamily=Georgia;dashed=1;fontColor=#000000;labelBorderColor=none;strokeColor=#000000;strokeWidth=1.2;" edge="1" parent="1" source="14" target="12">
                    <mxGeometry relative="1" as="geometry">
                        <Array as="points">
                            <mxPoint x="140" y="380"/>
                            <mxPoint x="200" y="370"/>
                            <mxPoint x="210" y="330"/>
                            <mxPoint x="200" y="300"/>
                        </Array>
                    </mxGeometry>
                </mxCell>
                <mxCell id="36" value="after the sign is&lt;br&gt;detected&amp;nbsp;&lt;br&gt;it is shown the&amp;nbsp;&lt;br&gt;screen&lt;br&gt;" style="edgeLabel;html=1;align=center;verticalAlign=middle;resizable=0;points=[];fontFamily=Georgia;fontColor=#000000;labelBorderColor=none;labelBackgroundColor=#FFFFFF;" vertex="1" connectable="0" parent="35">
                    <mxGeometry x="0.2935" y="2" relative="1" as="geometry">
                        <mxPoint x="9" y="21" as="offset"/>
                    </mxGeometry>
                </mxCell>
                <mxCell id="39" style="edgeStyle=none;html=1;exitX=1;exitY=0.5;exitDx=0;exitDy=0;entryX=0;entryY=0.5;entryDx=0;entryDy=0;fontFamily=Georgia;fontColor=#000000;labelBorderColor=none;strokeColor=#000000;strokeWidth=1.5;" edge="1" parent="1" source="14" target="37">
                    <mxGeometry relative="1" as="geometry">
                        <Array as="points">
                            <mxPoint x="237" y="440"/>
                        </Array>
                    </mxGeometry>
                </mxCell>
                <mxCell id="14" value="Backend&amp;nbsp; process the&amp;nbsp;&lt;br&gt;image captured" style="rounded=1;whiteSpace=wrap;html=1;fontFamily=Georgia;fontColor=#000000;labelBorderColor=none;strokeColor=#000000;fillColor=none;" vertex="1" parent="1">
                    <mxGeometry x="80" y="410" width="120" height="60" as="geometry"/>
                </mxCell>
                <mxCell id="28" value="" style="endArrow=classic;html=1;fontFamily=Georgia;exitX=0.25;exitY=1;exitDx=0;exitDy=0;entryX=0.75;entryY=0;entryDx=0;entryDy=0;fontColor=#000000;labelBorderColor=none;strokeColor=#000000;strokeWidth=2;" edge="1" parent="1" source="8" target="12">
                    <mxGeometry relative="1" as="geometry">
                        <mxPoint x="430" y="290" as="sourcePoint"/>
                        <mxPoint x="530" y="290" as="targetPoint"/>
                    </mxGeometry>
                </mxCell>
                <mxCell id="43" value="required app permission&lt;br&gt;is given by user" style="edgeLabel;html=1;align=center;verticalAlign=middle;resizable=0;points=[];fontFamily=Courier New;fontColor=#000000;labelBorderColor=none;labelBackgroundColor=#FFFFFF;" vertex="1" connectable="0" parent="28">
                    <mxGeometry x="-0.3599" relative="1" as="geometry">
                        <mxPoint x="-2" as="offset"/>
                    </mxGeometry>
                </mxCell>
                <mxCell id="44" value="app opens up the camera" style="edgeLabel;html=1;align=center;verticalAlign=middle;resizable=0;points=[];fontFamily=Courier New;fontColor=#000000;labelBorderColor=none;labelBackgroundColor=#FFFFFF;" vertex="1" connectable="0" parent="28">
                    <mxGeometry x="0.4232" y="-2" relative="1" as="geometry">
                        <mxPoint as="offset"/>
                    </mxGeometry>
                </mxCell>
                <mxCell id="32" value="" style="endArrow=classic;html=1;fontFamily=Georgia;exitX=0.25;exitY=1;exitDx=0;exitDy=0;entryX=0.25;entryY=0;entryDx=0;entryDy=0;fixDash=1;dashed=1;fontColor=#000000;labelBorderColor=none;strokeColor=#000000;strokeWidth=1.2;" edge="1" parent="1" source="12" target="14">
                    <mxGeometry relative="1" as="geometry">
                        <mxPoint x="430" y="320" as="sourcePoint"/>
                        <mxPoint x="530" y="320" as="targetPoint"/>
                        <Array as="points">
                            <mxPoint x="60" y="290"/>
                            <mxPoint x="60" y="310"/>
                            <mxPoint x="60" y="350"/>
                        </Array>
                    </mxGeometry>
                </mxCell>
                <mxCell id="34" value="the required&amp;nbsp;&lt;br&gt;information is sent to the&amp;nbsp;&lt;br&gt;backend" style="edgeLabel;html=1;align=center;verticalAlign=middle;resizable=0;points=[];fontFamily=Georgia;fontColor=#000000;labelBorderColor=none;labelBackgroundColor=#FFFFFF;" vertex="1" connectable="0" parent="32">
                    <mxGeometry x="0.1505" y="2" relative="1" as="geometry">
                        <mxPoint as="offset"/>
                    </mxGeometry>
                </mxCell>
                <mxCell id="41" style="edgeStyle=none;html=1;exitX=0.5;exitY=1;exitDx=0;exitDy=0;entryX=0.75;entryY=0;entryDx=0;entryDy=0;fontFamily=Georgia;fontColor=#000000;labelBorderColor=none;strokeColor=#000000;strokeWidth=2;" edge="1" parent="1" source="37" target="40">
                    <mxGeometry relative="1" as="geometry">
                        <Array as="points">
                            <mxPoint x="330" y="500"/>
                            <mxPoint x="240" y="500"/>
                        </Array>
                    </mxGeometry>
                </mxCell>
                <mxCell id="37" value="after the sign is known&lt;br&gt;we convert it to audio" style="rounded=0;whiteSpace=wrap;html=1;fontFamily=Georgia;fontColor=#000000;labelBorderColor=none;strokeColor=#000000;fillColor=none;" vertex="1" parent="1">
                    <mxGeometry x="270" y="410" width="120" height="60" as="geometry"/>
                </mxCell>
                <mxCell id="40" value="OUTPUT&lt;br&gt;(audio output to user)" style="rounded=1;whiteSpace=wrap;html=1;fontFamily=Georgia;fontColor=#000000;labelBorderColor=none;strokeColor=#000000;fillColor=none;" vertex="1" parent="1">
                    <mxGeometry x="150" y="555" width="120" height="60" as="geometry"/>
                </mxCell>
            </root>
        </mxGraphModel>
    </diagram>
</mxfile>